<?xml version="1.0" standalone="no"?>
<!DOCTYPE svg PUBLIC "-//W3C//DTD SVG 20010904//EN"
 "http://www.w3.org/TR/2001/REC-SVG-20010904/DTD/svg10.dtd">
<svg version="1.0" xmlns="http://www.w3.org/2000/svg"
 width="307.000000pt" height="307.000000pt" viewBox="0 0 307.000000 307.000000"
 preserveAspectRatio="xMidYMid meet">
<metadata>
Created by potrace 1.11, written by Peter Selinger 2001-2013
</metadata>
<g transform="translate(0.000000,307.000000) scale(0.100000,-0.100000)"
fill="#000000" stroke="none">
<path d="M1508 2923 c18 -2 45 -2 60 0 15 2 0 4 -33 4 -33 0 -45 -2 -27 -4z"/>
<path d="M1368 2913 c6 -2 18 -2 25 0 6 3 1 5 -13 5 -14 0 -19 -2 -12 -5z"/>
<path d="M1668 2913 c6 -2 18 -2 25 0 6 3 1 5 -13 5 -14 0 -19 -2 -12 -5z"/>
<path d="M2323 2667 c0 -8 6 -14 14 -14 9 0 10 4 2 14 -6 7 -12 13 -14 13 -1
0 -2 -6 -2 -13z"/>
<path d="M1711 2644 c-12 -15 -24 -38 -27 -51 -7 -28 -12 -29 -40 -2 -19 18
-25 19 -43 7 -12 -7 -21 -19 -21 -26 0 -7 -5 -22 -11 -33 -10 -20 -11 -20 -30
-3 -10 9 -19 21 -19 26 0 14 -40 98 -47 98 -3 0 -3 -15 0 -34 5 -34 5 -34 -14
-15 -33 33 -86 2 -131 -76 -9 -16 -20 -31 -25 -32 -4 -2 -19 17 -32 42 -32 60
-71 112 -71 94 0 -8 9 -39 21 -69 26 -70 33 -104 19 -95 -6 3 -7 0 -4 -9 4
-10 1 -16 -10 -16 -10 0 -13 6 -10 15 11 27 -29 144 -50 151 -31 10 -127 7
-138 -4 -5 -5 -12 -29 -14 -53 -7 -63 9 -79 92 -93 52 -9 68 -15 65 -26 -2 -8
-3 -23 -3 -32 1 -14 -7 -12 -45 13 -44 27 -47 28 -63 11 -10 -9 -15 -21 -13
-27 3 -5 -19 17 -49 49 -31 34 -58 55 -61 49 -4 -6 0 -16 8 -23 8 -7 15 -21
15 -31 0 -10 4 -21 10 -24 17 -11 11 -32 -11 -38 -12 -3 -19 -11 -16 -19 2 -7
0 -21 -5 -31 -8 -16 -14 -12 -43 33 -38 59 -56 51 -25 -10 11 -22 18 -46 14
-52 -4 -6 -3 -8 4 -4 6 3 13 2 17 -4 3 -5 1 -10 -5 -10 -6 0 -2 -10 10 -22 25
-27 25 -28 -12 -57 l-30 -24 -54 29 c-30 16 -66 43 -79 59 -50 63 -105 118
-105 105 0 -7 21 -42 47 -79 26 -36 47 -70 45 -74 -1 -5 2 -6 6 -3 5 3 18 -4
28 -16 l19 -21 -46 7 c-42 6 -47 5 -52 -16 -4 -12 -1 -28 5 -35 8 -11 7 -12
-6 -7 -9 3 -16 9 -16 13 0 3 -10 7 -22 8 -51 4 -124 14 -135 18 -7 2 -15 0
-18 -4 -3 -5 31 -21 75 -35 71 -24 178 -76 156 -76 -5 0 -4 -6 2 -12 20 -26
18 -85 -3 -85 -18 0 -17 -1 -6 30 11 27 -6 61 -31 62 -34 2 -138 30 -138 38 0
4 -4 6 -8 3 -5 -3 -32 -2 -60 3 -28 4 -51 5 -50 2 0 -3 -1 -9 -2 -13 -8 -24
-1 -36 40 -73 24 -22 57 -53 73 -68 24 -24 35 -28 68 -25 32 3 37 1 25 -8 -9
-6 -16 -17 -16 -23 0 -7 -6 -9 -12 -5 -10 6 -10 4 0 -7 15 -17 16 -33 0 -23
-7 4 -2 -7 11 -24 l22 -32 -25 10 c-30 11 -131 21 -121 12 4 -4 10 -7 13 -8 4
0 25 -8 47 -18 22 -10 67 -22 100 -26 33 -4 52 -8 42 -9 -10 0 -16 -5 -13 -9
3 -5 -1 -9 -9 -9 -8 0 -15 5 -15 10 0 5 -11 7 -25 5 -14 -3 -25 -2 -25 2 0 4
-12 7 -27 7 -16 -1 -49 2 -74 6 -35 6 -49 4 -59 -8 -14 -16 -32 -87 -20 -80 4
2 17 -5 28 -16 12 -11 22 -18 22 -15 0 3 17 -1 38 -8 37 -13 72 -13 114 -1
l23 7 -23 -22 c-19 -18 -35 -22 -85 -22 -68 -1 -139 -26 -113 -40 8 -5 34 -4
57 1 44 10 64 6 53 -10 -3 -5 -9 -7 -14 -4 -4 2 -19 -4 -33 -15 -25 -20 -25
-21 -9 -61 15 -39 18 -41 51 -36 20 2 44 7 53 11 10 5 18 4 18 -1 0 -10 -95
-73 -109 -73 -14 0 -72 -32 -67 -37 10 -10 139 17 157 33 16 15 19 15 19 2 0
-30 27 -42 68 -30 20 6 40 8 45 3 12 -12 -17 -32 -55 -38 -18 -3 -40 -9 -49
-14 -11 -5 -30 -2 -57 11 -57 28 -82 29 -96 5 -6 -11 -13 -22 -16 -25 -15 -15
-9 -50 13 -67 23 -17 27 -50 5 -37 -6 4 -8 2 -4 -4 3 -5 -4 -23 -17 -39 -13
-15 -22 -34 -20 -40 3 -7 0 -13 -5 -13 -15 0 -9 -26 11 -48 9 -10 15 -21 13
-23 -2 -2 7 -5 20 -5 13 -1 31 -8 40 -15 13 -11 11 -16 -16 -40 -29 -27 -39
-49 -22 -49 4 0 13 5 20 12 9 9 12 6 12 -14 0 -32 5 -36 56 -44 22 -3 42 -8
47 -11 12 -7 77 37 77 54 0 8 -10 27 -23 42 -18 22 -27 26 -52 20 -54 -12 -59
-14 -77 -34 -13 -15 -17 -17 -18 -5 0 13 44 51 45 39 1 -2 22 16 49 41 59 56
76 64 120 56 45 -9 46 -20 4 -36 -71 -26 -78 -30 -78 -45 0 -16 67 -95 81 -95
4 0 18 10 31 23 13 13 32 29 43 37 11 7 8 2 -7 -13 -15 -15 -30 -43 -34 -62
-3 -19 -10 -38 -15 -41 -5 -3 -6 -10 -3 -16 4 -7 2 -8 -4 -4 -6 4 -19 -5 -28
-19 -9 -14 -19 -23 -22 -20 -3 2 -15 -8 -28 -22 -36 -42 -12 -51 35 -14 22 18
45 30 51 26 6 -4 9 -1 8 6 -2 6 3 14 11 17 8 3 11 0 7 -6 -4 -6 2 -17 14 -24
32 -20 23 -28 -14 -13 -26 11 -36 12 -48 2 -29 -24 -78 -108 -76 -132 1 -13 4
-22 7 -20 2 3 20 -9 39 -26 33 -29 38 -31 91 -24 69 9 69 9 75 48 10 61 13
116 7 113 -4 -3 -18 4 -31 15 l-25 19 57 0 c47 0 60 4 72 22 l15 21 12 -29
c18 -45 20 -81 4 -94 -7 -6 -19 -32 -26 -58 -9 -36 -22 -54 -52 -77 -44 -33
-61 -60 -30 -47 47 19 94 60 108 95 14 34 35 51 35 26 0 -5 10 -25 23 -44 16
-24 27 -31 37 -25 8 5 18 6 24 3 5 -3 6 -1 2 5 -4 7 -4 12 1 12 14 0 53 65 54
91 0 13 3 18 6 12 2 -7 13 -13 24 -13 10 0 19 -6 20 -12 0 -7 3 -22 5 -33 3
-11 6 -25 6 -32 1 -7 7 -14 14 -17 10 -4 12 -24 8 -86 -7 -86 9 -113 20 -36 4
24 13 51 20 61 13 18 15 18 41 -3 49 -38 85 -22 87 37 1 39 20 56 46 42 25
-13 62 -76 62 -105 0 -12 5 -27 12 -34 10 -10 8 -17 -9 -34 -19 -19 -24 -20
-39 -7 -12 9 -15 9 -10 2 5 -9 0 -12 -15 -10 -26 2 -39 -32 -28 -78 6 -26 7
-23 8 18 0 26 6 47 11 47 6 0 10 -6 10 -12 0 -9 3 -9 8 -3 14 21 51 15 55 -8
4 -22 4 -22 6 1 1 16 7 22 25 22 13 0 27 -6 29 -12 4 -10 6 -10 6 0 1 6 12 12
26 12 21 0 25 -5 25 -28 0 -15 5 -33 12 -40 7 -7 8 -13 3 -13 -30 -5 -51 -3
-57 6 -5 7 -8 7 -8 0 0 -6 -29 -10 -67 -9 -77 1 -107 -11 -92 -37 7 -14 24
-17 106 -17 54 0 104 -1 112 -3 7 -2 15 4 16 14 2 9 -1 15 -6 11 -13 -8 -11
10 3 24 7 7 13 33 13 57 0 39 -3 45 -21 45 -11 0 -24 3 -28 7 -9 9 -46 11 -40
2 2 -4 -4 -7 -14 -6 -16 1 -19 10 -21 61 -1 32 -9 73 -18 89 -14 28 -14 29 2
23 61 -23 87 -11 108 50 l14 38 7 -58 c3 -32 11 -67 17 -77 14 -27 46 -23 64
9 9 15 14 19 11 10 -2 -9 4 -26 14 -38 11 -13 17 -28 13 -34 -3 -6 -2 -8 2 -4
5 5 19 -9 31 -30 17 -26 23 -31 24 -18 0 10 -9 34 -20 52 -12 18 -23 42 -25
53 -4 22 2 22 66 5 26 -7 46 5 72 44 23 36 42 96 26 87 -4 -3 -10 -1 -14 5 -3
5 3 10 14 10 13 0 23 -11 31 -35 6 -19 18 -35 25 -35 8 0 18 -6 22 -13 4 -7
19 -20 33 -29 14 -9 45 -35 70 -57 43 -40 60 -49 60 -33 0 4 -36 45 -80 90
-44 46 -77 88 -74 94 4 6 2 8 -3 5 -6 -4 -13 2 -16 13 -3 13 3 24 18 34 17 11
22 21 17 38 -5 22 -5 23 19 5 13 -10 36 -22 51 -28 23 -9 88 -79 74 -79 -4 0
3 -9 14 -20 29 -29 46 -25 26 5 -20 30 -13 32 14 5 11 -11 26 -20 33 -20 26 0
50 27 49 56 -2 51 -6 73 -13 69 -3 -3 -14 4 -24 14 -22 25 -53 19 -83 -15 -18
-20 -26 -24 -35 -15 -9 9 -9 14 2 20 9 6 12 24 10 60 -2 28 -2 51 0 51 23 0
119 -35 115 -41 -3 -5 -1 -9 4 -9 6 0 29 -16 52 -35 24 -20 45 -33 48 -31 5 5
-66 93 -94 117 -9 7 -32 15 -51 16 -40 2 -69 21 -54 36 5 5 18 6 28 2 10 -4
27 -10 38 -12 11 -2 24 -8 29 -13 18 -18 123 41 110 61 -7 12 23 11 47 -2 27
-14 65 -52 62 -61 -2 -4 5 -4 14 -1 10 4 14 2 10 -4 -4 -6 3 -13 15 -16 30 -8
31 -4 5 24 -12 13 -21 27 -19 32 1 5 -1 6 -6 3 -5 -3 -20 6 -33 20 -13 15 -33
30 -44 34 -16 7 -12 9 17 9 24 1 45 9 61 24 26 24 85 113 69 103 -16 -10 -22
22 -6 34 8 7 14 9 14 4 0 -5 7 2 16 14 10 14 13 30 8 40 -4 9 -6 21 -5 25 1 5
-3 6 -7 3 -10 -6 -49 32 -44 43 1 3 -26 7 -60 9 -82 3 -97 8 -74 25 13 9 16
20 11 40 -4 14 -12 25 -18 24 -6 -1 -13 6 -15 16 -2 12 3 17 18 17 12 0 19 -3
17 -7 -3 -5 33 -7 80 -5 71 3 82 6 72 18 -9 12 -5 14 25 14 34 0 36 2 36 33 0
17 -4 38 -9 46 -12 19 -120 28 -131 11 -10 -16 -3 -59 12 -77 8 -10 3 -12 -23
-9 -19 3 -41 5 -49 6 -12 0 -12 3 2 11 29 16 40 46 26 68 -6 10 -18 17 -25 14
-7 -3 -13 0 -13 6 0 7 23 11 58 12 31 0 80 7 107 14 l50 13 -40 2 c-22 2 -75
2 -118 1 -55 -1 -77 2 -72 9 4 6 10 9 13 6 3 -4 15 0 28 8 12 8 25 12 29 8 4
-4 41 -7 83 -7 63 0 80 4 95 19 21 23 21 21 1 51 -9 14 -13 32 -10 42 4 10 4
14 0 10 -4 -4 -13 6 -20 23 -13 30 -24 34 -102 33 -19 0 -20 2 -10 15 11 13
10 14 -2 7 -8 -4 -25 -17 -37 -27 -18 -17 -20 -25 -12 -51 5 -18 9 -32 9 -33
0 -7 -111 24 -111 31 -1 5 23 21 52 35 55 26 86 65 69 85 -11 13 7 35 28 35
11 0 53 19 82 38 2 2 -2 7 -10 12 -12 7 -11 12 4 29 13 14 15 24 8 38 -17 29
-47 50 -68 46 -10 -3 -27 -5 -36 -6 -9 -1 -14 -5 -12 -9 3 -4 -2 -8 -10 -8 -9
0 -16 -4 -16 -9 0 -5 -3 -16 -6 -25 -3 -9 5 -24 20 -37 14 -12 22 -27 19 -33
-4 -6 0 -5 9 1 8 7 18 10 22 6 4 -4 -14 -15 -41 -23 -40 -14 -52 -14 -74 -3
-25 11 -26 16 -22 60 5 48 26 78 47 66 6 -3 8 -2 4 2 -10 10 63 56 76 48 5 -4
6 -1 2 5 -6 10 30 28 47 24 5 -1 5 3 1 9 -5 9 -2 10 9 6 11 -4 14 -2 10 9 -7
19 -38 18 -57 -2 -9 -8 -20 -12 -26 -9 -5 3 -10 1 -10 -5 0 -12 -101 -60 -127
-60 -11 0 -28 6 -38 14 -18 13 -17 17 32 66 33 33 56 49 64 44 8 -4 10 -3 5 4
-4 7 -3 12 3 12 14 0 101 53 101 62 0 9 -60 -1 -75 -12 -5 -4 -26 -13 -46 -19
-23 -8 -58 -35 -99 -81 -39 -43 -68 -66 -77 -63 -10 4 2 22 44 64 58 58 72 79
53 79 -19 0 -10 27 18 51 15 13 44 39 65 57 21 17 34 32 30 33 -4 0 -18 2 -30
3 -18 2 -20 0 -11 -11 6 -8 7 -13 2 -11 -5 1 -22 -6 -39 -16 -69 -44 -66 -43
-122 -28 -29 9 -53 18 -53 21 1 22 97 94 113 84 5 -3 7 -2 4 4 -4 5 5 16 18
23 30 16 32 30 5 30 -11 0 -20 -5 -20 -11 0 -6 -7 -8 -16 -5 -8 3 -13 2 -10
-3 5 -8 -11 -17 -81 -47 -31 -13 -32 -13 -27 11 2 14 0 25 -6 25 -6 0 -8 5 -4
11 5 8 1 8 -13 0 -14 -7 -23 -7 -31 1 -8 8 -13 7 -17 -5 -4 -9 -13 -13 -22
-10 -12 5 -14 3 -8 -7 5 -9 4 -11 -4 -6 -16 10 22 62 59 81 15 8 31 25 35 37
4 13 9 28 11 33 1 6 6 21 10 35 7 22 5 23 -8 12 -9 -7 -21 -26 -28 -42 -9 -22
-23 -33 -51 -41 -21 -7 -37 -15 -36 -18 3 -10 -37 -71 -46 -71 -4 0 -5 -4 -2
-10 3 -5 2 -10 -4 -10 -6 0 -15 9 -22 21 -7 15 -18 20 -34 16 l-24 -4 20 38
c22 45 23 49 7 49 -15 -1 -39 -32 -58 -76 -11 -26 -17 -30 -31 -21 -13 8 -15
16 -7 41 5 17 11 63 14 101 4 66 4 69 -11 48 -9 -13 -24 -23 -34 -23 -11 0
-22 -7 -25 -16 -4 -9 -9 -14 -13 -11 -9 10 -53 -54 -53 -77 0 -18 -3 -17 -20
9 -11 17 -25 37 -32 47 -9 13 -8 28 4 74 9 32 15 60 13 62 -1 2 -12 -9 -24
-24z m-565 -60 c15 -4 24 -18 32 -52 6 -26 9 -48 8 -49 -1 -2 -27 4 -57 11
-29 8 -57 12 -60 10 -14 -8 -26 22 -22 54 5 29 8 32 42 32 20 0 45 -3 57 -6z
m294 -3 c0 -12 -69 -163 -82 -178 -7 -9 -16 -9 -34 -1 -13 6 -24 15 -24 20 0
18 112 168 126 168 8 0 14 -4 14 -9z m40 -76 c-7 -8 -16 -12 -21 -9 -5 3 -9 2
-8 -3 1 -4 0 -10 -1 -13 -3 -9 -10 -45 -12 -67 -2 -21 -26 -31 -41 -17 -3 3
13 45 36 93 40 83 42 86 51 59 6 -19 5 -32 -4 -43z m203 10 c26 -24 47 -49 47
-55 0 -19 -40 -70 -55 -70 -7 0 -30 27 -49 59 -32 53 -35 62 -25 85 7 14 17
26 23 26 6 -1 32 -20 59 -45z m191 -12 c-4 -21 -11 -49 -16 -61 l-8 -24 -25
24 c-31 29 -31 36 2 70 39 41 56 37 47 -9z m-318 -59 c19 -46 12 -67 -31 -87
-48 -23 -55 -22 -55 12 0 53 12 89 34 99 32 16 36 15 52 -24z m-255 -80 c112
-71 115 -86 17 -82 l-73 3 -22 60 c-24 66 -26 75 -17 75 4 0 46 -25 95 -56z
m-131 -25 c0 -26 -29 -31 -61 -12 -23 14 -29 25 -29 50 l0 33 45 -28 c25 -15
45 -34 45 -43z m847 7 c-6 -19 -25 -17 -32 3 -10 31 5 48 22 25 7 -10 12 -23
10 -28z m-171 -25 c9 -18 6 -37 -19 -102 -16 -43 -33 -79 -36 -79 -4 0 -26 39
-49 86 l-43 86 21 33 21 34 47 -18 c26 -10 52 -28 58 -40z m98 0 c42 -51 45
-56 30 -72 -28 -31 -74 -1 -100 66 -16 44 -12 69 11 63 7 -2 33 -27 59 -57z
m226 41 c0 -16 -48 -54 -59 -47 -18 11 -12 31 12 43 27 13 47 15 47 4z m-1152
-24 c23 -26 42 -69 42 -99 0 -19 -2 -18 -34 6 -48 37 -65 65 -55 93 11 28 20
28 47 0z m1067 -40 c9 -18 10 -27 3 -20 -6 6 -19 12 -27 12 -8 0 -12 -3 -9 -6
6 -6 -35 -54 -46 -54 -4 0 6 18 23 39 17 21 31 44 31 50 0 19 8 12 25 -21z
m96 0 c-11 -28 -57 -62 -66 -48 -5 8 66 82 73 76 1 -2 -2 -14 -7 -28z m-658
-34 c26 -20 47 -38 47 -41 0 -16 -56 -83 -70 -83 -10 0 -38 24 -63 53 l-45 53
20 27 c27 37 55 34 111 -9z m149 -1 c32 -37 44 -113 18 -113 -32 0 -57 22 -68
58 -7 21 -12 47 -12 56 0 22 43 21 62 -1z m-454 -13 c22 -18 23 -22 11 -55 -7
-19 -26 -47 -42 -63 l-28 -27 -19 25 c-34 44 -34 58 2 100 38 44 45 46 76 20z
m925 -107 c-5 -29 -7 -31 -25 -22 -12 6 -42 19 -69 28 l-48 16 36 43 36 44 38
-39 c31 -32 36 -43 32 -70z m159 81 c21 -13 -14 -21 -55 -13 -32 6 -45 4 -53
-6 -6 -8 -14 -12 -18 -8 -3 3 2 15 11 26 15 15 26 18 61 13 24 -3 48 -9 54
-12z m-333 -70 l34 -27 -44 -22 c-24 -13 -48 -21 -55 -18 -6 2 -19 30 -29 61
-9 31 -20 63 -23 71 -6 16 63 -23 117 -65z m-990 2 c26 -38 28 -45 14 -50 -15
-6 -93 36 -93 51 0 10 32 43 41 43 4 0 22 -20 38 -44z m92 4 c39 -37 41 -42
27 -56 -9 -9 -21 -13 -27 -9 -17 10 -63 105 -52 105 6 0 29 -18 52 -40z m1187
-60 c-39 -41 -74 -76 -79 -78 -17 -7 -9 72 12 114 l20 43 59 -2 58 -1 -70 -76z
m-1451 35 c45 -30 70 -129 38 -155 -12 -10 -23 2 -68 72 -29 45 -57 89 -62 97
-7 12 -1 13 30 8 20 -3 48 -13 62 -22z m655 -70 c28 -25 53 -45 57 -45 3 0 42
11 85 24 44 14 85 22 91 18 7 -4 48 -34 92 -67 l81 -59 6 -58 7 -58 47 0 c40
-1 54 -7 89 -38 42 -36 42 -38 49 -120 l7 -83 -49 -50 -49 -49 -17 22 c-16 22
-16 21 -11 -38 5 -55 1 -73 -36 -170 -88 -228 -80 -213 -115 -220 -18 -3 -59
1 -91 10 -33 8 -60 14 -62 13 -1 -2 13 -11 32 -22 19 -10 35 -22 35 -27 0 -12
-10 -10 -46 13 -19 11 -38 18 -43 14 -6 -3 -27 1 -47 10 l-38 16 21 21 22 21
56 -21 c68 -26 71 -27 54 -6 -12 15 -10 15 24 0 20 -8 37 -13 37 -11 0 3 -25
20 -55 40 -47 29 -54 38 -45 52 6 10 42 101 80 203 55 146 70 196 70 239 0 42
5 60 21 77 13 14 19 32 17 50 -3 27 -7 24 -59 -51 -73 -104 -79 -116 -41 -81
l32 30 0 -34 c0 -25 -136 -364 -157 -389 -2 -3 -20 3 -41 12 l-37 18 35 -30
c46 -40 22 -40 -38 0 -43 28 -24 6 23 -27 18 -13 18 -15 3 -31 -16 -15 -22
-13 -87 32 -39 26 -71 49 -71 51 0 3 27 -10 61 -27 34 -16 63 -29 65 -27 2 2
-37 34 -86 71 l-89 67 31 67 c16 38 49 137 73 220 l42 153 -25 32 c-13 18 -22
25 -18 15 18 -54 16 -72 -30 -209 -45 -137 -99 -243 -128 -254 -7 -3 -31 2
-52 11 -101 43 -109 42 -33 -5 74 -45 53 -49 -28 -4 -123 68 -123 68 -123 133
0 50 8 75 54 172 43 92 55 109 57 88 4 -25 8 -21 53 43 34 49 42 67 28 59 -11
-6 -25 -11 -30 -11 -5 0 -13 37 -17 81 l-7 82 49 43 c45 40 52 43 107 44 55 0
61 -2 108 -45z m-466 -5 c2 0 4 -3 4 -7 0 -10 -86 -10 -96 -1 -4 4 -1 14 6 22
11 14 16 14 47 1 20 -8 37 -15 39 -15z m-452 -6 c33 -8 78 -20 99 -25 21 -6
37 -16 37 -25 0 -17 -57 -54 -84 -54 -11 0 -47 27 -82 60 -34 33 -55 60 -47
60 8 0 43 -7 77 -16z m1541 -86 c31 -76 29 -106 -7 -87 -42 21 -128 91 -128
103 0 7 19 26 43 43 50 37 52 36 92 -59z m-1075 26 c35 -41 31 -52 -21 -60
-26 -4 -41 -1 -59 14 l-25 20 29 31 c17 17 33 31 37 31 4 0 21 -16 39 -36z
m1380 -39 c-1 -26 -17 -95 -24 -103 -4 -3 -20 7 -36 23 -30 29 -38 69 -24 122
l6 22 39 -22 c25 -14 39 -29 39 -42z m-171 -7 c-28 -55 -41 -63 -56 -35 -14
26 -10 33 31 58 45 28 49 24 25 -23z m377 17 c7 -17 -12 -45 -30 -45 -7 0 -21
7 -32 15 -19 15 -19 15 0 30 25 19 55 19 62 0z m-1796 -71 c22 -20 40 -39 40
-43 0 -3 -26 -16 -58 -29 -56 -21 -59 -21 -100 -5 -39 15 -43 19 -40 47 2 24
11 35 38 48 51 26 75 22 120 -18z m1461 -78 c15 -18 15 -24 3 -48 -23 -44 -88
-34 -128 21 -28 38 -25 55 9 49 12 -3 30 1 40 8 21 15 48 4 76 -30z m-1288 16
c16 -17 15 -20 -7 -41 l-24 -23 -12 22 c-9 18 -8 25 6 41 21 23 17 23 37 1z
m1517 -42 c0 -5 -30 -24 -67 -40 l-68 -31 -17 22 c-30 36 -23 48 35 52 106 7
117 7 117 -3z m-1659 -41 c10 -30 10 -45 1 -59 -6 -10 -8 -27 -6 -38 6 -20
-20 -82 -34 -82 -4 0 -33 16 -65 36 -51 32 -57 39 -57 69 0 31 5 37 68 74 37
22 70 40 74 41 4 0 13 -18 19 -41z m-211 -35 c0 -8 -9 -23 -21 -35 -23 -23
-49 -22 -113 5 -39 16 -44 27 -22 48 19 19 156 3 156 -18z m2006 1 c11 -3 49
-93 43 -99 -2 -2 -32 -7 -66 -11 l-63 -7 0 66 0 67 38 -6 c20 -4 42 -8 48 -10z
m-176 -71 c20 -5 30 -12 30 -25 0 -21 -13 -26 -101 -34 l-65 -7 -28 43 -28 42
81 -7 c44 -3 94 -9 111 -12z m-280 -56 c37 -58 40 -67 34 -113 -5 -44 -13 -57
-62 -107 -42 -44 -50 -56 -32 -51 47 12 16 -49 -119 -235 -38 -51 -50 -61 -68
-57 -78 18 -80 18 -59 1 23 -19 15 -20 -38 -5 l-38 11 35 24 c20 13 39 34 42
46 4 13 28 78 52 146 39 106 47 121 60 110 14 -11 15 -6 9 37 l-7 50 66 59
c70 61 69 60 49 129 -4 12 0 17 15 17 14 0 33 -19 61 -62z m-1220 -63 c-24
-25 -45 -45 -46 -45 -1 0 0 8 3 18 4 14 68 70 83 72 2 0 -16 -20 -40 -45z
m-315 -4 c-4 -14 -23 -26 -60 -37 -59 -19 -61 -19 -67 11 -2 16 8 23 57 41 63
23 81 19 70 -15z m354 -28 c-23 -66 -23 -77 -6 -70 8 3 74 -32 148 -77 116
-71 136 -87 145 -116 7 -22 28 -48 57 -70 63 -48 62 -48 42 -70 -17 -19 -18
-19 -55 0 -21 11 -67 27 -104 36 -36 9 -66 19 -66 23 0 3 9 21 21 40 11 18 18
35 16 37 -1 2 -20 -10 -40 -27 l-37 -30 -103 41 c-56 23 -106 46 -111 50 -5 5
-2 33 8 68 19 70 20 80 4 64 -15 -15 -28 -15 -28 -1 0 10 118 159 126 159 2 0
-6 -25 -17 -57z m-224 27 c3 -5 1 -19 -5 -31 -8 -14 -8 -29 -1 -50 10 -29 10
-29 -52 -48 -34 -10 -65 -17 -69 -14 -4 2 4 27 18 56 36 72 91 116 109 87z
m1674 -35 l45 -22 -28 -18 c-21 -14 -39 -17 -87 -12 -33 3 -63 8 -66 11 -3 3
6 22 21 41 31 40 37 40 115 0z m185 -21 c35 -13 11 -44 -34 -44 -16 0 -30 18
-30 41 0 10 40 12 64 3z m-250 -120 c46 -26 59 -44 32 -44 -20 0 -177 38 -183
44 -3 3 -3 13 1 22 9 23 90 12 150 -22z m-1806 -74 c36 -17 62 -35 62 -45 0
-20 -9 -19 -91 5 -69 21 -74 25 -63 54 8 22 20 20 92 -14z m205 -36 c37 -25
67 -50 67 -54 0 -7 -30 -82 -35 -88 -4 -4 -79 41 -87 53 -4 5 -24 38 -43 73
l-36 62 33 0 c23 0 54 -14 101 -46z m1644 40 c-3 -3 -12 -4 -19 -1 -8 3 -5 6
6 6 11 1 17 -2 13 -5z m-60 -26 c32 -12 64 -26 71 -31 14 -11 16 -73 2 -82
-16 -10 -160 93 -160 115 0 25 15 25 87 -2z m-87 -90 c0 -38 -14 -42 -46 -14
l-28 24 19 42 19 41 17 -33 c10 -18 18 -45 19 -60z m265 61 c-4 -6 -14 -8 -23
-4 -9 3 -13 3 -9 -1 4 -4 2 -13 -4 -20 -8 -10 -7 -22 2 -44 8 -16 17 -30 21
-30 5 0 8 -5 8 -11 0 -6 -7 -8 -16 -5 -8 3 -12 2 -9 -3 3 -5 1 -12 -5 -16 -5
-3 -10 -1 -10 5 0 6 -8 10 -17 8 -12 -2 -16 2 -13 12 3 8 5 39 5 68 l0 52 38
0 c25 0 36 -4 32 -11z m55 -34 c10 -13 10 -19 -5 -35 -23 -25 -32 -25 -45 1
-20 37 23 66 50 34z m-1981 -4 c9 -6 22 -6 33 0 13 7 20 4 29 -13 10 -18 8
-24 -11 -40 -14 -11 -27 -15 -34 -10 -6 5 -37 14 -69 21 -53 12 -60 11 -79 -6
-20 -17 -21 -17 -11 0 24 45 105 71 142 48z m1744 -41 c7 -6 21 -18 32 -26 11
-9 14 -12 6 -8 -7 3 -17 0 -22 -7 -6 -11 -13 -9 -33 10 -33 31 -17 60 17 31z
m-1753 -49 c0 -9 -50 -81 -56 -81 -8 0 -104 50 -104 55 0 2 18 15 41 28 35 21
46 23 80 15 21 -6 39 -13 39 -17z m397 21 c7 -4 15 -21 19 -37 5 -28 2 -32
-49 -59 -49 -27 -56 -28 -75 -15 -21 15 -21 16 24 67 45 52 58 59 81 44z
m1441 -54 c-16 -5 -28 -14 -28 -19 0 -6 -4 -8 -9 -5 -5 3 -8 -10 -7 -29 2 -42
-5 -44 -30 -10 -10 14 -24 25 -31 25 -7 0 -13 5 -13 11 0 6 7 8 16 5 8 -3 12
-2 9 4 -9 14 32 29 80 29 38 -1 39 -1 13 -11z m95 -28 c-24 -34 -33 -40 -65
-40 -21 0 -38 4 -38 9 0 11 99 70 118 70 8 1 3 -14 -15 -39z m-1713 -1 c-14
-24 -89 -99 -101 -99 -9 0 -39 40 -39 52 0 5 8 8 18 8 9 0 40 13 67 30 60 35
69 37 55 9z m1329 -11 c-7 -13 -19 -33 -27 -46 l-15 -23 -38 37 c-21 21 -36
41 -33 46 3 4 32 8 65 8 59 0 60 0 48 -22z m136 -24 c42 -14 56 -24 68 -50 16
-32 15 -32 -13 -44 -29 -12 -51 -9 -107 17 -35 16 -39 27 -23 67 11 31 9 30
75 10z m-1075 -31 c0 -22 -24 -89 -34 -95 -16 -11 -56 -10 -56 1 0 5 9 30 20
55 16 37 24 46 45 46 14 0 25 -3 25 -7z m349 -12 c8 -13 6 -34 -5 -70 -15 -50
-15 -51 -54 -51 -45 0 -46 2 -29 79 10 49 15 54 66 60 7 0 17 -8 22 -18z
m-506 3 c3 -3 -11 -41 -31 -83 -20 -42 -37 -77 -38 -79 -1 -1 -8 0 -17 4 -13
5 -14 10 -7 25 7 13 7 24 -2 39 -11 17 -8 24 27 60 37 38 55 47 68 34z m-425
-26 c19 -19 -5 -38 -48 -38 -49 0 -56 10 -22 31 32 21 54 23 70 7z m1536 3 c3
-5 0 -11 -8 -14 -15 -6 -26 1 -26 15 0 11 27 10 34 -1z m-154 -35 c0 -27 -14
-41 -50 -49 -14 -3 -35 -9 -47 -12 -38 -12 -26 11 25 49 55 42 72 45 72 12z
m-1091 -27 c23 -30 23 -30 5 -65 -17 -31 -22 -34 -66 -34 -26 0 -49 4 -52 9
-8 13 66 130 79 124 5 -2 21 -18 34 -34z m-89 17 c0 -2 -7 -7 -16 -10 -8 -3
-12 -2 -9 4 6 10 25 14 25 6z m551 -12 c15 -9 -24 -73 -50 -83 -14 -5 -34 -12
-43 -16 -13 -5 -18 -2 -18 9 0 9 -7 19 -15 22 -18 7 -19 24 -3 60 12 25 15 26
66 20 30 -4 58 -9 63 -12z m729 6 c36 -19 55 -132 24 -144 -9 -3 -17 -6 -19
-6 -1 0 -24 25 -51 56 l-48 57 28 23 c30 27 39 28 66 14z m-409 -92 c26 -51
29 -63 17 -74 -12 -12 -21 -6 -62 35 -47 48 -48 50 -36 85 10 31 14 35 31 26
10 -6 33 -38 50 -72z m123 66 c21 -21 11 -37 -14 -22 -14 9 -25 9 -47 -2 -47
-24 -49 -22 -13 9 39 35 52 38 74 15z m166 -70 c29 -67 27 -81 -16 -88 -19 -4
-42 -10 -50 -13 -11 -4 -14 8 -14 60 0 62 1 66 28 75 15 6 28 11 29 11 1 1 11
-20 23 -45z m-169 3 c7 -16 6 -31 -3 -53 -23 -53 -121 -213 -129 -209 -4 3
-10 21 -13 41 -10 49 9 101 42 117 23 11 27 19 27 57 0 25 4 51 8 58 14 21 56
14 68 -11z m-716 -88 c7 -85 7 -86 -20 -107 -15 -12 -31 -22 -34 -22 -10 0
-41 67 -41 86 0 9 7 41 16 71 11 38 22 57 37 63 12 4 25 5 29 1 3 -3 9 -45 13
-92z m143 29 l3 -58 -41 0 c-52 0 -60 18 -31 77 17 35 26 44 44 41 19 -3 22
-10 25 -60z m336 11 c28 -40 28 -41 16 -100 -14 -63 -31 -82 -64 -69 -12 5
-38 11 -58 15 -21 3 -40 10 -43 15 -8 13 43 128 68 158 29 32 48 27 81 -19z
m-204 -11 c26 -28 25 -44 -1 -58 -16 -9 -26 -8 -45 5 -23 15 -24 17 -9 45 18
36 28 37 55 8z m-550 -90 c0 -53 -2 -55 -56 -63 -33 -5 -44 -2 -71 22 l-33 28
36 47 35 47 44 -17 c45 -16 45 -17 45 -64z m1454 46 c18 -27 18 -55 0 -61 -16
-5 -57 54 -50 72 8 23 32 18 50 -11z m-920 -79 c7 -26 -3 -115 -13 -115 -3 0
-34 23 -69 50 -45 38 -62 57 -62 75 0 18 5 25 20 25 10 0 24 9 30 20 10 20 11
19 49 -6 22 -14 42 -36 45 -49z m840 59 c9 -24 2 -26 -12 -4 -7 11 -8 20 -3
20 5 0 12 -7 15 -16z m-314 2 c0 -2 -11 -6 -25 -8 -13 -3 -22 -1 -19 3 5 9 44
13 44 5z m-98 -72 c-12 -26 -18 -32 -20 -20 -2 10 4 26 14 37 25 27 26 24 6
-17z m94 -28 c-28 -37 -41 -42 -64 -27 -12 7 -11 14 3 40 19 39 54 55 74 36
12 -12 10 -19 -13 -49z m-366 -186 c0 -5 -5 -10 -11 -10 -5 0 -7 5 -4 10 3 6
8 10 11 10 2 0 4 -4 4 -10z"/>
<path d="M1570 1992 c-25 -10 -45 -22 -45 -27 0 -34 29 -174 35 -170 4 2 10
24 14 47 4 24 9 52 12 64 3 12 -1 28 -11 37 -15 15 -14 17 10 23 14 3 30 15
36 25 12 23 7 23 -51 1z"/>
<path d="M629 2593 c-13 -16 -12 -17 4 -4 9 7 17 15 17 17 0 8 -8 3 -21 -13z"/>
<path d="M736 2569 c3 -5 -1 -9 -8 -9 -7 0 -19 -10 -27 -22 -18 -29 -32 -78
-21 -78 4 0 11 -11 14 -25 8 -31 15 -31 76 1 42 22 50 31 50 55 0 34 -19 78
-34 80 -46 6 -55 5 -50 -2z m48 -55 c4 -15 6 -27 4 -28 -29 -21 -54 -36 -60
-36 -15 0 -8 53 9 72 23 25 40 22 47 -8z"/>
<path d="M2463 2555 c0 -8 4 -12 9 -9 5 3 6 10 3 15 -9 13 -12 11 -12 -6z"/>
<path d="M2520 2506 c0 -2 8 -10 18 -17 15 -13 16 -12 3 4 -13 16 -21 21 -21
13z"/>
<path d="M520 2456 c0 -2 8 -10 18 -17 15 -13 16 -12 3 4 -13 16 -21 21 -21
13z"/>
<path d="M469 2433 c-13 -16 -12 -17 4 -4 9 7 17 15 17 17 0 8 -8 3 -21 -13z"/>
<path d="M2215 2441 c-3 -5 -2 -12 3 -15 5 -3 9 1 9 9 0 17 -3 19 -12 6z"/>
<path d="M2590 2426 c0 -2 8 -10 18 -17 15 -13 16 -12 3 4 -13 16 -21 21 -21
13z"/>
<path d="M290 2169 c0 -5 5 -7 10 -4 6 3 10 8 10 11 0 2 -4 4 -10 4 -5 0 -10
-5 -10 -11z"/>
<path d="M2756 2162 c-3 -5 1 -9 9 -9 8 0 12 4 9 9 -3 4 -7 8 -9 8 -2 0 -6 -4
-9 -8z"/>
<path d="M246 2073 c-6 -14 -5 -15 5 -6 7 7 10 15 7 18 -3 3 -9 -2 -12 -12z"/>
<path d="M2891 1794 c0 -11 3 -14 6 -6 3 7 2 16 -1 19 -3 4 -6 -2 -5 -13z"/>
<path d="M152 1730 c0 -14 2 -19 5 -12 2 6 2 18 0 25 -3 6 -5 1 -5 -13z"/>
<path d="M2913 1625 c0 -27 2 -38 4 -22 2 15 2 37 0 50 -2 12 -4 0 -4 -28z"/>
<path d="M143 1595 c0 -27 2 -38 4 -22 2 15 2 37 0 50 -2 12 -4 0 -4 -28z"/>
<path d="M143 1430 c0 -25 2 -35 4 -22 2 12 2 32 0 45 -2 12 -4 2 -4 -23z"/>
<path d="M2913 1430 c0 -25 2 -35 4 -22 2 12 2 32 0 45 -2 12 -4 2 -4 -23z"/>
<path d="M151 1334 c0 -11 3 -14 6 -6 3 7 2 16 -1 19 -3 4 -6 -2 -5 -13z"/>
<path d="M2901 1334 c0 -11 3 -14 6 -6 3 7 2 16 -1 19 -3 4 -6 -2 -5 -13z"/>
<path d="M2892 1285 c0 -16 2 -22 5 -12 2 9 2 23 0 30 -3 6 -5 -1 -5 -18z"/>
<path d="M2856 1144 c-4 -14 -5 -28 -3 -31 3 -2 8 8 11 23 4 14 5 28 3 31 -3
2 -8 -8 -11 -23z"/>
<path d="M2785 959 c-4 -6 -5 -12 -2 -15 2 -3 7 2 10 11 7 17 1 20 -8 4z"/>
<path d="M2752 888 c-12 -23 -21 -43 -19 -45 2 -1 14 15 26 38 13 22 21 42 19
44 -2 2 -13 -15 -26 -37z"/>
<path d="M2688 778 c-46 -73 -53 -88 -26 -54 28 37 71 106 64 106 -2 0 -19
-24 -38 -52z"/>
<path d="M2607 667 l-17 -32 20 24 c17 20 26 41 18 41 -2 0 -11 -15 -21 -33z"/>
<path d="M490 610 c12 -16 24 -30 26 -30 3 0 -4 14 -16 30 -12 17 -24 30 -26
30 -3 0 4 -13 16 -30z"/>
<path d="M2500 545 l-64 -70 69 67 c38 37 67 69 65 70 -3 2 -34 -28 -70 -67z"/>
<path d="M656 448 c3 -5 10 -6 15 -3 13 9 11 12 -6 12 -8 0 -12 -4 -9 -9z"/>
<path d="M699 458 c-5 -18 -6 -38 -1 -34 7 8 12 36 6 36 -2 0 -4 -1 -5 -2z"/>
<path d="M1476 443 c-6 -14 -5 -15 5 -6 7 7 10 15 7 18 -3 3 -9 -2 -12 -12z"/>
<path d="M2364 428 l-19 -23 23 19 c21 18 27 26 19 26 -2 0 -12 -10 -23 -22z"/>
<path d="M2319 393 c-13 -16 -12 -17 4 -4 16 13 21 21 13 21 -2 0 -10 -8 -17
-17z"/>
<path d="M2235 345 c-39 -32 -29 -32 15 0 19 14 30 25 24 25 -5 -1 -22 -12
-39 -25z"/>
<path d="M830 336 c0 -3 9 -10 20 -16 11 -6 20 -8 20 -6 0 3 -9 10 -20 16 -11
6 -20 8 -20 6z"/>
<path d="M2070 260 c-8 -5 -10 -10 -5 -10 6 0 17 5 25 10 8 5 11 10 5 10 -5 0
-17 -5 -25 -10z"/>
<path d="M1848 183 c7 -3 16 -2 19 1 4 3 -2 6 -13 5 -11 0 -14 -3 -6 -6z"/>
<path d="M1808 173 c7 -3 16 -2 19 1 4 3 -2 6 -13 5 -11 0 -14 -3 -6 -6z"/>
<path d="M1288 163 c7 -3 16 -2 19 1 4 3 -2 6 -13 5 -11 0 -14 -3 -6 -6z"/>
<path d="M1348 153 c7 -3 16 -2 19 1 4 3 -2 6 -13 5 -11 0 -14 -3 -6 -6z"/>
<path d="M1688 153 c6 -2 18 -2 25 0 6 3 1 5 -13 5 -14 0 -19 -2 -12 -5z"/>
<path d="M1483 143 c26 -2 68 -2 95 0 26 2 4 3 -48 3 -52 0 -74 -1 -47 -3z"/>
</g>
</svg>
